<svg width="169" height="65" viewBox="0 0 169 65" fill="none" xmlns="http://www.w3.org/2000/svg">
<path d="M16.3593 11.115V0.764996H20.7753V11.115H16.3593ZM7.11327 11.115V0.764996H11.5293V11.115H7.11327ZM16.3593 63.762V53.412H20.7753V63.762H16.3593ZM7.11327 63.762V53.412H11.5293V63.762H7.11327ZM0.765266 57V7.734H12.0813C15.9453 7.734 19.1653 8.125 21.7413 8.907C24.3633 9.689 26.3183 10.977 27.6063 12.771C28.9403 14.565 29.6073 16.957 29.6073 19.947C29.6073 21.879 29.2853 23.604 28.6413 25.122C28.0433 26.594 27.1233 27.836 25.8813 28.848C24.6853 29.814 23.1903 30.481 21.3963 30.849V31.194C23.2363 31.516 24.8693 32.114 26.2953 32.988C27.7673 33.862 28.9173 35.104 29.7453 36.714C30.6193 38.324 31.0563 40.417 31.0563 42.993C31.0563 45.983 30.4123 48.536 29.1243 50.652C27.8823 52.722 26.0883 54.309 23.7423 55.413C21.3963 56.471 18.5903 57 15.3243 57H0.765266ZM13.3233 28.71C17.0953 28.71 19.6713 28.043 21.0513 26.709C22.4773 25.329 23.1903 23.305 23.1903 20.637C23.1903 17.923 22.3163 15.991 20.5683 14.841C18.8663 13.645 16.1293 13.047 12.3573 13.047H6.97527V28.71H13.3233ZM6.97527 33.885V51.756H14.1513C17.9693 51.756 20.6373 50.905 22.1553 49.203C23.6733 47.501 24.4323 45.27 24.4323 42.51C24.4323 40.762 24.0873 39.244 23.3973 37.956C22.7533 36.668 21.6493 35.679 20.0853 34.989C18.5213 34.253 16.3823 33.885 13.6683 33.885H6.97527ZM40.1284 57C40.1958 56.2363 40.3979 55.5063 40.7349 54.8101C41.0942 54.0913 41.5322 53.4736 42.0488 52.957C42.5879 52.4404 43.1943 52.0249 43.8682 51.7104C44.542 51.396 45.2607 51.2388 46.0244 51.2388H48.9893V38.9077H41.0381C41.1055 38.144 41.3076 37.4141 41.6445 36.7178C42.0039 35.999 42.4419 35.3813 42.9585 34.8647C43.4976 34.3481 44.104 33.9326 44.7778 33.6182C45.4517 33.3037 46.1704 33.1465 46.9341 33.1465H48.9893V20.2427C48.9893 19.0522 49.1577 17.9404 49.4946 16.9072C49.8315 15.8516 50.2808 14.9419 50.8423 14.1782C51.4263 13.3921 52.1001 12.7856 52.8638 12.3589C53.6499 11.9097 54.481 11.6851 55.3569 11.6851H66.7109C67.5869 11.6851 68.4067 11.9097 69.1704 12.3589C69.9565 12.7856 70.6304 13.3921 71.1919 14.1782C71.7759 14.9419 72.2363 15.8516 72.5732 16.9072C72.9102 17.9404 73.0786 19.0522 73.0786 20.2427V23.3086H65.0601V17.042H57.0078V33.1465H70.9224C70.9224 33.9551 70.7539 34.7075 70.417 35.4038C70.0801 36.1001 69.6309 36.7178 69.0693 37.2568C68.5303 37.7734 67.9014 38.1777 67.1826 38.4697C66.4863 38.7617 65.7676 38.9077 65.0264 38.9077H57.0078V42.9844C57.0078 44.1523 56.8394 45.2192 56.5024 46.1851C56.188 47.1509 55.7837 47.9932 55.2896 48.7119C54.8179 49.4307 54.29 50.0146 53.7061 50.4639C53.1221 50.8906 52.5718 51.1489 52.0552 51.2388H77.8965C77.8965 52.0474 77.728 52.7998 77.3911 53.4961C77.0542 54.1924 76.605 54.8101 76.0435 55.3491C75.5044 55.8657 74.8755 56.27 74.1567 56.562C73.4604 56.854 72.7417 57 72.0005 57H40.1284ZM91.7437 43.3887H85.1064C85.1738 42.625 85.376 41.895 85.7129 41.1987C86.0723 40.48 86.5103 39.8623 87.0269 39.3457C87.5659 38.8291 88.1724 38.4136 88.8462 38.0991C89.52 37.7847 90.2388 37.6274 91.0024 37.6274H91.7437V32.7085H85.1064C85.1738 31.9448 85.376 31.2148 85.7129 30.5186C86.0723 29.7998 86.5103 29.1821 87.0269 28.6655C87.5659 28.1489 88.1724 27.7334 88.8462 27.4189C89.52 27.1045 90.2388 26.9473 91.0024 26.9473H91.7437V20.2427C91.7437 19.0522 91.9121 17.9404 92.249 16.9072C92.5859 15.8516 93.0352 14.9419 93.5967 14.1782C94.1807 13.3921 94.8545 12.7856 95.6182 12.3589C96.3818 11.9097 97.2017 11.6851 98.0776 11.6851H118.966C119.842 11.6851 120.673 11.9097 121.459 12.3589C122.246 12.7856 122.931 13.3921 123.515 14.1782C124.099 14.9419 124.559 15.8516 124.896 16.9072C125.233 17.9404 125.401 19.0522 125.401 20.2427L125.368 23.9824H117.349V17.3789H99.7959V26.9473H114.047C114.047 27.7559 113.879 28.5083 113.542 29.2046C113.205 29.9009 112.756 30.5186 112.194 31.0576C111.655 31.5742 111.026 31.9785 110.308 32.2705C109.611 32.5625 108.893 32.7085 108.151 32.7085H99.7959V37.6274H112.969C112.969 38.436 112.733 39.1885 112.262 39.8848C111.79 40.5811 111.184 41.1987 110.442 41.7378C109.724 42.2544 108.938 42.6587 108.084 42.9507C107.253 43.2427 106.467 43.3887 105.726 43.3887H99.7959V51.2388H117.349V47.6675H125.368V48.5098C125.368 49.6777 125.199 50.7783 124.862 51.8115C124.525 52.8447 124.065 53.7432 123.481 54.5068C122.897 55.2705 122.212 55.877 121.426 56.3262C120.662 56.7754 119.842 57 118.966 57H98.0776C97.2017 57 96.3818 56.7754 95.6182 56.3262C94.8545 55.877 94.1807 55.2705 93.5967 54.5068C93.0352 53.7432 92.5859 52.8447 92.249 51.8115C91.9121 50.7783 91.7437 49.6777 91.7437 48.5098V43.3887ZM137.429 44.9722H145.481V51.2388H150.434V36.4482L141.876 32.1694C140.529 31.4956 139.451 30.4736 138.642 29.1035C137.833 27.7334 137.429 26.0264 137.429 23.9824V20.209C137.429 19.0186 137.586 17.9067 137.901 16.8735C138.238 15.8179 138.687 14.9082 139.249 14.1445C139.833 13.3584 140.506 12.752 141.27 12.3252C142.034 11.876 142.854 11.6514 143.729 11.6514H150.468V4.27295H155.724V11.6514H162.024C162.9 11.6514 163.72 11.876 164.483 12.3252C165.247 12.752 165.91 13.3584 166.471 14.1445C167.055 14.9082 167.516 15.8179 167.853 16.8735C168.189 17.9067 168.358 19.0186 168.358 20.209V23.6792H160.306V17.4126H155.724V31.7651L163.911 35.8418C165.258 36.5156 166.336 37.5376 167.145 38.9077C167.954 40.2778 168.358 41.9849 168.358 44.0288V48.4424C168.358 49.6328 168.189 50.7559 167.853 51.8115C167.538 52.8447 167.089 53.7544 166.505 54.5405C165.943 55.3042 165.281 55.9106 164.517 56.3599C163.753 56.7866 162.934 57 162.058 57H155.724V64.311H150.434V57H143.763C142.887 57 142.067 56.7866 141.304 56.3599C140.54 55.9106 139.866 55.3042 139.282 54.5405C138.721 53.7544 138.271 52.8447 137.935 51.8115C137.598 50.7559 137.429 49.6328 137.429 48.4424V44.9722ZM150.468 29.1372V17.4126H145.481V26.5767L150.468 29.1372ZM160.306 51.2388V41.4346L155.724 39.1099V51.2388H160.306Z" fill="#FFB810"/>
</svg>
