<svg width="214" height="75" viewBox="0 0 214 75" fill="none" xmlns="http://www.w3.org/2000/svg">
<g clip-path="url(#clip0_1969_578)">
<path d="M201.121 4.24744L201.908 5.79867C202.154 6.29112 202.547 6.68508 203.063 6.95593L204.612 7.74386L203.063 8.53178C202.572 8.77801 202.178 9.17197 201.908 9.68905L201.121 11.2403L200.334 9.68905C200.088 9.1966 199.695 8.80263 199.179 8.53178L197.63 7.74386L199.179 6.95593C199.67 6.7097 200.064 6.31574 200.334 5.79867L201.121 4.24744Z" fill="#F0A2F9"/>
<path d="M99.1651 1.27051L99.9519 2.82174C100.198 3.31419 100.591 3.70815 101.108 3.979L102.657 4.76693L101.108 5.55485C100.616 5.80108 100.222 6.19504 99.9519 6.71212L99.1651 8.26335L98.3783 6.71212C98.1324 6.21967 97.739 5.8257 97.2227 5.55485L95.6736 4.76693L97.2227 3.979C97.7144 3.73278 98.1078 3.33881 98.3783 2.82174L99.1651 1.27051Z" fill="#F0A2F9"/>
<path d="M204.775 47.3691L205.561 48.9204C205.807 49.4128 206.201 49.8068 206.717 50.0776L208.266 50.8656L206.717 51.6535C206.225 51.8997 205.832 52.2937 205.561 52.8108L204.775 54.362L203.988 52.8108C203.742 52.3183 203.349 51.9243 202.832 51.6535L201.283 50.8656L202.832 50.0776C203.324 49.8314 203.717 49.4374 203.988 48.9204L204.775 47.3691Z" fill="#F0A2F9"/>
<path d="M105.238 67.2938L106.025 68.8451C106.271 69.3375 106.664 69.7315 107.181 70.0023L108.73 70.7902L107.181 71.5782C106.689 71.8244 106.296 72.2184 106.025 72.7354L105.238 74.2867L104.451 72.7354C104.206 72.243 103.812 71.849 103.296 71.5782L101.747 70.7902L103.296 70.0023C103.788 69.7561 104.181 69.3621 104.451 68.8451L105.238 67.2938Z" fill="#F0A2F9"/>
<path d="M3.7521 27.4641L4.53891 29.0153C4.78479 29.5078 5.1782 29.9018 5.69454 30.1726L7.24357 30.9605L5.69454 31.7485C5.20279 31.9947 4.80938 32.3886 4.53891 32.9057L3.7521 34.457L2.96529 32.9057C2.71942 32.4133 2.32601 32.0193 1.80967 31.7485L0.260635 30.9605L1.80967 30.1726C2.30142 29.9264 2.69483 29.5324 2.96529 29.0153L3.7521 27.4641Z" fill="#F0A2F9"/>
<path d="M16.4148 42.6957L51.3148 25.2013V23.6304H16.4148V11.1984H73.0996V29.8451L38.2685 47.1967V48.7652H73.2422V61.1972H16.4148V42.6957Z" fill="#121422"/>
<path d="M117.141 36.9833V35.2695C126.74 35.2695 133.121 31.2511 133.121 24.2213C133.121 14.973 126.376 11.2107 114.274 11.2107H76.9353V61.1947H114.274C127.318 61.1947 133.121 56.4967 133.121 49.1346C133.121 41.7724 128.466 36.9857 117.141 36.9857V36.9833ZM107.178 49.8363H95.9269V41.4818H107.178C110.817 41.4818 112.696 43.1291 112.696 45.6258C112.696 48.8563 110.505 49.8363 107.178 49.8363ZM107.178 30.8424H95.9269V22.5544H107.178C110.097 22.5544 112.696 23.2783 112.696 26.7648C112.696 30.2514 109.701 30.8424 107.178 30.8424Z" fill="#121422"/>
<path d="M135.762 11.2083H170.091C190.934 11.2083 200.332 21.4882 200.332 36.2003C200.332 51.6535 189.038 61.1923 170.091 61.1923H135.762V11.2083ZM180.052 36.2003C180.052 27.378 173.907 24.0613 167.94 24.0613H155.614V48.3393H167.94C173.833 48.3393 180.052 45.0251 180.052 36.2003Z" fill="#121422"/>
<path d="M179.063 16.4036C179.063 16.4036 189.088 17.4673 189.857 3.00391C189.857 3.00391 189.759 14.9484 199.995 16.3617C199.995 16.3617 190.543 16.9206 190.165 29.4831C190.15 29.4979 190.233 17.6224 179.063 16.406V16.4036Z" fill="#F0FF27" stroke="black" stroke-linejoin="round"/>
<path d="M0.12294 47.9576C0.12294 47.9576 10.1474 49.0213 10.917 34.558C10.917 34.558 10.8186 46.5024 21.0545 47.9158C21.0545 47.9158 11.603 48.4747 11.2243 61.0372C11.2096 61.052 11.2932 49.1765 0.12294 47.9601V47.9576Z" fill="#F0FF27" stroke="black" stroke-linejoin="round"/>
<path d="M201.202 21.0352C201.202 21.0352 207.273 21.6803 207.737 12.922C207.737 12.922 207.678 20.1537 213.875 21.0105C213.875 21.0105 208.151 21.3503 207.922 28.9538C207.914 28.9612 207.964 21.7738 201.2 21.0352H201.202Z" fill="#F0FF27" stroke="black" stroke-linejoin="round"/>
<path d="M82.3052 8.23634C82.3052 8.23634 88.376 8.88145 88.8407 0.123169C88.8407 0.123169 88.7816 7.35485 94.9778 8.21172C94.9778 8.21172 89.2537 8.55151 89.0251 16.155C89.0177 16.1624 89.0669 8.97502 82.3028 8.23634H82.3052Z" fill="#F0FF27" stroke="black" stroke-linejoin="round"/>
<path d="M109.9 65.2993C109.9 65.2993 115.971 65.9444 116.436 57.1862C116.436 57.1862 116.377 64.4178 122.573 65.2747C122.573 65.2747 116.849 65.6145 116.62 73.218C116.613 73.2254 116.662 66.038 109.898 65.2993H109.9Z" fill="#F0FF27" stroke="black" stroke-linejoin="round"/>
<path d="M18.1015 27.5849C18.1015 27.5849 24.1723 28.23 24.637 19.4717C24.637 19.4717 24.578 26.7034 30.7741 27.5602C30.7741 27.5602 25.0501 27.9 24.8214 35.5035C24.814 35.5109 24.8632 28.3235 18.0991 27.5849H18.1015Z" fill="#F0FF27" stroke="black" stroke-linejoin="round"/>
</g>
<defs>
<clipPath id="clip0_1969_578">
<rect width="214" height="74.2866" fill="white"/>
</clipPath>
</defs>
</svg>
